<svg width="20" height="20" viewBox="0 0 20 20" fill="none" xmlns="http://www.w3.org/2000/svg">
<path d="M14.9631 17.31L17.2005 9.39329C17.3508 8.86145 16.9512 8.33333 16.3985 8.33333H11.6145C11.3214 8.33333 11.1046 8.06074 11.1705 7.7752L11.3786 6.87337C11.5695 6.04612 11.6308 5.19429 11.5603 4.34824L11.522 3.88862C11.4809 3.39556 11.2664 2.93302 10.9165 2.58316C10.5965 2.26312 10.1624 2.08333 9.70979 2.08333H9.61017C9.33642 2.08333 9.08421 2.23173 8.95129 2.47101L7.84375 4.46454C7.34704 5.35866 6.60663 6.09333 5.70871 6.58312L2.93429 8.09645C2.66657 8.24245 2.5 8.52308 2.5 8.82804V17.0833C2.5 17.5436 2.8731 17.9167 3.33333 17.9167H14.1612C14.5342 17.9167 14.8617 17.6689 14.9631 17.31Z" stroke="#333333" stroke-width="1.5" stroke-linecap="round" stroke-linejoin="round"/>
</svg>
